{
  "accessors": [
    {
      "bufferView": 2,
      "componentType": 5126,
      "count": 65532,
      "max": [
        0.5272229909896851,
        0.2863759994506836,
        0.9603189826011658
      ],
      "min": [
        -0.5272229909896851,
        -0.22235499322414398,
        -1.3850489854812622
      ],
      "type": "VEC3"
    },
    {
      "bufferView": 2,
      "byteOffset": 786384,
      "componentType": 5126,
      "count": 65532,
      "max": [
        0.9999878406524658,
        0.9999854564666748,
        0.9999780654907227
      ],
      "min": [
        -0.9999878406524658,
        -1.0,
        -1.0
      ],
      "type": "VEC3"
    },
    {
      "bufferView": 1,
      "componentType": 5126,
      "count": 65532,
      "max": [
        0.9902049899101257,
        0.9811300039291382
      ],
      "min": [
        0.009796000085771084,
        0.01639300025999546
      ],
      "type": "VEC2"
    },
    {
      "bufferView": 0,
      "componentType": 5125,
      "count": 366639,
      "type": "SCALAR"
    },
    {
      "bufferView": 2,
      "byteOffset": 1572768,
      "componentType": 5126,
      "count": 15638,
      "max": [
        0.23436899483203888,
        0.2416120022535324,
        0.702672004699707
      ],
      "min": [
        -0.23852300643920898,
        0.10989599674940109,
        0.544031023979187
      ],
      "type": "VEC3"
    },
    {
      "bufferView": 2,
      "byteOffset": 1760424,
      "componentType": 5126,
      "count": 15638,
      "max": [
        0.9998511672019958,
        0.9987738132476807,
        0.9999085664749146
      ],
      "min": [
        -0.9998511672019958,
        -0.9987738132476807,
        -0.9999085664749146
      ],
      "type": "VEC3"
    },
    {
      "bufferView": 1,
      "byteOffset": 524256,
      "componentType": 5126,
      "count": 15638,
      "max": [
        0.7904390096664429,
        0.07026399672031403
      ],
      "min": [
        0.7423610091209412,
        0.02353999949991703
      ],
      "type": "VEC2"
    },
    {
      "bufferView": 0,
      "byteOffset": 1466556,
      "componentType": 5125,
      "count": 83589,
      "type": "SCALAR"
    }
  ],
  "asset": {
    "extras": {
      "author": "2ad700ss (https://sketchfab.com/2ad700ss)",
      "license": "CC-BY-4.0 (http://creativecommons.org/licenses/by/4.0/)",
      "source": "https://sketchfab.com/3d-models/squad-game-doll-beauty-4792f692c8ea488e9d04f35de8612e48",
      "title": "SQUAD GAME DOLL BEAUTY"
    },
    "generator": "Sketchfab-12.67.0",
    "version": "2.0"
  },
  "bufferViews": [
    {
      "buffer": 0,
      "byteLength": 1800912,
      "name": "floatBufferViews",
      "target": 34963
    },
    {
      "buffer": 0,
      "byteLength": 649360,
      "byteOffset": 1800912,
      "byteStride": 8,
      "name": "floatBufferViews",
      "target": 34962
    },
    {
      "buffer": 0,
      "byteLength": 1948080,
      "byteOffset": 2450272,
      "byteStride": 12,
      "name": "floatBufferViews",
      "target": 34962
    }
  ],
  "buffers": [
    {
      "byteLength": 4398352,
      "uri": "scene.bin"
    }
  ],
  "images": [
    {
      "uri": "textures/doll_baseColor.png"
    }
  ],
  "materials": [
    {
      "doubleSided": true,
      "name": "doll",
      "pbrMetallicRoughness": {
        "baseColorTexture": {
          "index": 0
        },
        "metallicFactor": 0.0,
        "roughnessFactor": 0.8331503017259243
      }
    }
  ],
  "meshes": [
    {
      "name": "Object_0",
      "primitives": [
        {
          "attributes": {
            "NORMAL": 1,
            "POSITION": 0,
            "TEXCOORD_0": 2
          },
          "indices": 3,
          "material": 0,
          "mode": 4
        }
      ]
    },
    {
      "name": "Object_1",
      "primitives": [
        {
          "attributes": {
            "NORMAL": 5,
            "POSITION": 4,
            "TEXCOORD_0": 6
          },
          "indices": 7,
          "material": 0,
          "mode": 4
        }
      ]
    }
  ],
  "nodes": [
    {
      "children": [
        1
      ],
      "matrix": [
        1.0,
        0.0,
        0.0,
        0.0,
        0.0,
        2.220446049250313e-16,
        -1.0,
        0.0,
        0.0,
        1.0,
        2.220446049250313e-16,
        0.0,
        0.0,
        0.0,
        0.0,
        1.0
      ],
      "name": "Sketchfab_model"
    },
    {
      "children": [
        2,
        3
      ],
      "name": "doll.obj.cleaner.materialmerger.gles"
    },
    {
      "mesh": 0,
      "name": "Object_2"
    },
    {
      "mesh": 1,
      "name": "Object_3"
    }
  ],
  "samplers": [
    {
      "magFilter": 9729,
      "minFilter": 9987,
      "wrapS": 10497,
      "wrapT": 10497
    }
  ],
  "scene": 0,
  "scenes": [
    {
      "name": "Sketchfab_Scene",
      "nodes": [
        0
      ]
    }
  ],
  "textures": [
    {
      "sampler": 0,
      "source": 0
    }
  ]
}
